<?xml version="1.0" standalone="no"?>
<!DOCTYPE svg PUBLIC "-//W3C//DTD SVG 20010904//EN"
 "http://www.w3.org/TR/2001/REC-SVG-20010904/DTD/svg10.dtd">
<svg version="1.0" xmlns="http://www.w3.org/2000/svg"
 width="256.000000pt" height="256.000000pt" viewBox="0 0 256.000000 256.000000"
 preserveAspectRatio="xMidYMid meet">
<metadata>
Created by potrace 1.11, written by Peter Selinger 2001-2013
</metadata>
<g transform="translate(0.000000,256.000000) scale(0.100000,-0.100000)"
fill="#000000" stroke="none">
<path d="M164 2541 c-59 -27 -109 -75 -138 -133 l-26 -52 0 -1076 0 -1076 26
-52 c29 -58 79 -106 138 -133 39 -18 92 -19 1117 -19 l1075 0 52 26 c58 29
106 79 133 138 18 39 19 92 19 1116 0 1024 -1 1077 -19 1116 -27 59 -75 109
-133 138 l-52 26 -1075 0 c-1025 0 -1078 -1 -1117 -19z"/>
</g>
</svg>
